# xmcd CD database file
#
# Track frame offsets:
#	150
#	27528
#	52143
#	77086
#	102819
#	129086
#	150991
#	180061
#	207677
#	234769
#	258638
#
# Disc length: 3757 seconds
#
# Revision: 0
# Processed by: cddbd v1.4PL0 Copyright (c) Steve Scherf et al.
# Submitted via: CDex 1.50beta10
#
DISCID=840eab0b
DTITLE=Sunny Heartley - The Chakra's Speak
DYEAR=1900
DGENRE=New Age
TTITLE0=Ancient Cave Beckons
TTITLE1=Sprialing Bowl of Breath
TTITLE2=Temple of Creation
TTITLE3=Eye Intuit Wisdom
TTITLE4=Cry My Heart Awake
TTITLE5=Heart Chamber
TTITLE6=Sacred Sight
TTITLE7=Dreams Manifest
TTITLE8=Return To Remembering
TTITLE9=Sanctuary
TTITLE10=Floating On Sacral Waters
EXTD=
EXTT0=
EXTT1=
EXTT2=
EXTT3=
EXTT4=
EXTT5=
EXTT6=
EXTT7=
EXTT8=
EXTT9=
EXTT10=
PLAYORDER=
